<svg width="100" height="100" viewBox="0 0 100 100" fill="none" xmlns="http://www.w3.org/2000/svg">
<rect width="100" height="100" rx="30" fill="#FFE9EF"/>
<g clip-path="url(#clip0_236_16)">
<path d="M79.333 31.3333H72.437L78.5517 25.2187C79.0374 24.7157 79.3062 24.0421 79.3001 23.3429C79.2941 22.6437 79.0136 21.9749 78.5192 21.4805C78.0248 20.9861 77.3559 20.7056 76.6568 20.6995C75.9576 20.6935 75.284 20.9622 74.781 21.448L68.6663 27.5627V20.6667C68.6663 19.9594 68.3854 19.2811 67.8853 18.781C67.3852 18.281 66.7069 18 65.9997 18C65.2924 18 64.6142 18.281 64.1141 18.781C63.614 19.2811 63.333 19.9594 63.333 20.6667V32.5493C61.1502 30.2256 58.5736 28.3063 55.7223 26.88C53.7204 25.997 51.4848 25.7921 49.3557 26.2966C47.2266 26.8011 45.3206 27.9873 43.9277 29.6747C39.2397 34.3627 26.173 58.3227 18.7997 72.184C18.1517 73.4452 17.9207 74.8796 18.1402 76.2804C18.3596 77.6813 19.0181 78.9763 20.0207 79.979C21.0233 80.9816 22.3184 81.6401 23.7192 81.8595C25.1201 82.079 26.5545 81.848 27.8157 81.2C41.6823 73.8293 65.637 60.76 70.325 56.072C72.0119 54.6793 73.198 52.774 73.7029 50.6455C74.2078 48.5171 74.004 46.282 73.1223 44.28C71.6942 41.4284 69.7741 38.8511 67.4503 36.6667H79.333C80.0403 36.6667 80.7185 36.3857 81.2186 35.8856C81.7187 35.3855 81.9997 34.7072 81.9997 34C81.9997 33.2928 81.7187 32.6145 81.2186 32.1144C80.7185 31.6143 80.0403 31.3333 79.333 31.3333ZM66.5543 52.3013C64.6478 53.9326 62.6018 55.3934 60.4397 56.6667L54.5517 50.7813C54.0487 50.2956 53.3751 50.0268 52.6759 50.0329C51.9768 50.0389 51.3079 50.3194 50.8135 50.8138C50.3191 51.3082 50.0386 51.9771 50.0326 52.6763C50.0265 53.3755 50.2953 54.0491 50.781 54.552L55.7677 59.536C48.445 63.9173 37.9303 69.7813 25.3117 76.4907C25.0596 76.6244 24.7713 76.6737 24.4892 76.6314C24.207 76.589 23.9459 76.4573 23.7441 76.2556C23.5423 76.0538 23.4106 75.7927 23.3683 75.5105C23.326 75.2284 23.3753 74.9401 23.509 74.688C27.5677 67.0587 31.3037 60.224 34.6023 54.3733L40.1143 59.8853C40.6173 60.3711 41.2909 60.6399 41.9901 60.6338C42.6893 60.6277 43.3581 60.3473 43.8525 59.8529C44.347 59.3584 44.6274 58.6896 44.6335 57.9904C44.6396 57.2912 44.3708 56.6176 43.885 56.1147L37.3357 49.5653C40.2423 44.528 42.685 40.4987 44.5597 37.664L50.781 43.8853C51.284 44.3711 51.9576 44.6399 52.6567 44.6338C53.3559 44.6277 54.0248 44.3473 54.5192 43.8529C55.0136 43.3584 55.2941 42.6896 55.3001 41.9904C55.3062 41.2912 55.0374 40.6176 54.5517 40.1147L47.797 33.36C50.0557 31.256 51.4397 30.9013 53.6183 31.7813C56.6425 33.5072 59.3543 35.7303 61.6397 38.3573C64.2677 40.6435 66.4917 43.3561 68.2183 46.3813C68.8823 47.928 69.141 49.7173 66.5543 52.3013Z" fill="#FF003D"/>
</g>
<defs>
<clipPath id="clip0_236_16">
<rect width="64" height="64" fill="white" transform="translate(18 18)"/>
</clipPath>
</defs>
</svg>
