<svg width="16" height="16" viewBox="0 0 16 16" fill="none" xmlns="http://www.w3.org/2000/svg">
<g clip-path="url(#clip0_443_713)">
<path d="M2.41329 7.76931L8.76529 1.4173L7.35129 0.0032959L0.999959 6.3553C0.564278 6.79177 0.31958 7.38327 0.31958 7.99997C0.31958 8.61667 0.564278 9.20818 0.999959 9.64464L7.35129 16L8.76529 14.586L2.41329 8.23064C2.38298 8.20036 2.35892 8.16441 2.34251 8.12483C2.32611 8.08525 2.31766 8.04282 2.31766 7.99997C2.31766 7.95713 2.32611 7.9147 2.34251 7.87512C2.35892 7.83554 2.38298 7.79958 2.41329 7.76931Z" fill="#4B4F52"/>
<path d="M15.3934 1.4173L13.9794 0.0032959L6.68936 7.29264C6.59643 7.38551 6.52272 7.49577 6.47242 7.61714C6.42213 7.73851 6.39624 7.8686 6.39624 7.99997C6.39624 8.13135 6.42213 8.26144 6.47242 8.3828C6.52272 8.50417 6.59643 8.61444 6.68936 8.70731L13.9794 16L15.3934 14.586L8.81069 7.99997L15.3934 1.4173Z" fill="#4B4F52"/>
</g>
<defs>
<clipPath id="clip0_443_713">
<rect width="16" height="16" fill="white"/>
</clipPath>
</defs>
</svg>
