<svg width="16" height="16" viewBox="0 0 16 16" fill="none" xmlns="http://www.w3.org/2000/svg">
<g clip-path="url(#clip0_242_24)">
<path d="M8.00007 -5.83178e-05C7.23582 -0.000688214 6.47542 0.108196 5.74207 0.323275L6.30607 2.24194C6.85628 2.08082 7.42674 1.99932 8.00007 1.99994V13.9999C7.42674 14.0006 6.85628 13.9191 6.30607 13.7579L5.74207 15.6766C6.84213 15.9992 7.99869 16.0817 9.13339 15.9183C10.2681 15.755 11.3544 15.3496 12.3188 14.7298C13.2832 14.11 14.1031 13.2901 14.723 12.3258C15.3429 11.3615 15.7483 10.2751 15.9117 9.14045C16.0752 8.00577 15.9928 6.84921 15.6703 5.74912C15.3477 4.64903 14.7925 3.63111 14.0423 2.76432C13.292 1.89752 12.3642 1.2021 11.3217 0.725154C10.2793 0.248211 9.14646 0.000889212 8.00007 -5.83178e-05V-5.83178e-05Z" fill="#374957"/>
<path d="M2 8.00009C1.99999 7.48545 2.0654 6.97289 2.19467 6.47475L0.260003 5.96942C-0.0878883 7.30266 -0.0878883 8.70285 0.260003 10.0361L2.19334 9.52876C2.0637 9.02958 1.99872 8.51582 2 8.00009V8.00009Z" fill="#374957"/>
<path d="M4.89798 2.8664L3.86198 1.1524C2.68483 1.86578 1.71025 2.86906 1.03131 4.0664L2.77264 5.0524C3.28226 4.1538 4.01407 3.4011 4.89798 2.8664V2.8664Z" fill="#374957"/>
<path d="M2.77402 10.9492L1.03268 11.9332C1.71198 13.1317 2.68785 14.1356 3.86668 14.8485L4.90202 13.1378C4.01676 12.6028 3.28396 11.8491 2.77402 10.9492V10.9492Z" fill="#374957"/>
</g>
<defs>
<clipPath id="clip0_242_24">
<rect width="16" height="16" fill="white"/>
</clipPath>
</defs>
</svg>
