<svg width="16" height="16" viewBox="0 0 16 16" fill="none" xmlns="http://www.w3.org/2000/svg">
<g clip-path="url(#clip0_443_730)">
<path d="M7.99992 0L1.33325 3.74333V14C1.33325 14.5304 1.54397 15.0391 1.91904 15.4142C2.29411 15.7893 2.80282 16 3.33325 16H12.6666C13.197 16 13.7057 15.7893 14.0808 15.4142C14.4559 15.0391 14.6666 14.5304 14.6666 14V3.74333L7.99992 0ZM3.33325 14V4.914L7.99992 2.294L12.6666 4.914V14H3.33325Z" fill="#4B4F52"/>
<path d="M8 7C8.55228 7 9 6.55228 9 6C9 5.44772 8.55228 5 8 5C7.44772 5 7 5.44772 7 6C7 6.55228 7.44772 7 8 7Z" fill="#4B4F52"/>
</g>
<defs>
<clipPath id="clip0_443_730">
<rect width="16" height="16" fill="white"/>
</clipPath>
</defs>
</svg>
