<svg width="16" height="16" viewBox="0 0 16 16" fill="none" xmlns="http://www.w3.org/2000/svg">
<g clip-path="url(#clip0_242_21)">
<path d="M9.3333 15.9998C7.21228 15.9975 5.17878 15.1539 3.67898 13.6541C2.17919 12.1544 1.3356 10.1209 1.3333 7.99983C1.2313 2.02849 8.02064 -1.98884 13.1946 1.00516L14.748 1.86649L13.206 2.74783C12.3021 3.27167 11.5595 4.03386 11.0594 4.95114C10.5593 5.86842 10.321 6.90549 10.3704 7.94906C10.4198 8.99263 10.755 10.0025 11.3395 10.8685C11.924 11.7344 12.7353 12.4231 13.6846 12.8592L15.3066 13.5925L13.84 14.5978C12.5144 15.5107 10.9428 15.9996 9.3333 15.9998V15.9998ZM9.3333 1.99983C8.46256 1.99738 7.60172 2.18449 6.81055 2.54816C6.01938 2.91184 5.31685 3.44335 4.75174 4.10581C4.18662 4.76827 3.77247 5.54578 3.53803 6.38438C3.30359 7.22297 3.25449 8.10255 3.39413 8.96203C3.53377 9.8215 3.85881 10.6403 4.34668 11.3615C4.83455 12.0828 5.47356 12.6892 6.21933 13.1386C6.96511 13.5881 7.79977 13.8699 8.66538 13.9644C9.53099 14.0589 10.4068 13.9638 11.232 13.6858C7.65464 11.0045 7.36997 5.17249 10.6873 2.15249C10.2434 2.04962 9.78901 1.99839 9.3333 1.99983V1.99983Z" fill="#374957"/>
</g>
<defs>
<clipPath id="clip0_242_21">
<rect width="16" height="16" fill="white"/>
</clipPath>
</defs>
</svg>
