<svg width="16" height="16" viewBox="0 0 16 16" fill="none" xmlns="http://www.w3.org/2000/svg">
<g clip-path="url(#clip0_443_737)">
<path d="M13.7273 0H2.27267C1.67013 0.000705748 1.09248 0.240373 0.666428 0.666428C0.240373 1.09248 0.000705748 1.67013 0 2.27267L0 16H16V2.27267C15.9993 1.67013 15.7596 1.09248 15.3336 0.666428C14.9075 0.240373 14.3299 0.000705748 13.7273 0V0ZM2.27267 2H13.7273C13.7996 2.00018 13.8688 2.02896 13.9199 2.08006C13.971 2.13115 13.9998 2.20041 14 2.27267V14L6.94267 6.94267C6.69263 6.69271 6.35355 6.55229 6 6.55229C5.64645 6.55229 5.30737 6.69271 5.05733 6.94267L2 10V2.27267C2.00018 2.20041 2.02896 2.13115 2.08006 2.08006C2.13115 2.02896 2.20041 2.00018 2.27267 2Z" fill="#4B4F52"/>
<path d="M10.3332 6.66646C11.2537 6.66646 11.9999 5.92027 11.9999 4.9998C11.9999 4.07932 11.2537 3.33313 10.3332 3.33313C9.41275 3.33313 8.66656 4.07932 8.66656 4.9998C8.66656 5.92027 9.41275 6.66646 10.3332 6.66646Z" fill="#4B4F52"/>
</g>
<defs>
<clipPath id="clip0_443_737">
<rect width="16" height="16" fill="white"/>
</clipPath>
</defs>
</svg>
