<svg width="16" height="16" viewBox="0 0 16 16" fill="none" xmlns="http://www.w3.org/2000/svg">
<g clip-path="url(#clip0_443_733)">
<path d="M12.6002 11.1844C13.6645 9.76201 14.1505 7.98923 13.9604 6.22291C13.7702 4.45659 12.918 2.82788 11.5753 1.66463C10.2325 0.501386 8.49901 -0.110027 6.72362 -0.0465323C4.94823 0.0169628 3.2628 0.750652 2.0066 2.00685C0.750408 3.26304 0.0167187 4.94847 -0.0467764 6.72386C-0.110272 8.49925 0.501142 10.2328 1.66439 11.5755C2.82764 12.9182 4.45635 13.7705 6.22267 13.9606C7.98899 14.1508 9.76177 13.6648 11.1842 12.6004L14.5842 16.0004L16.0002 14.5871L12.6002 11.1844ZM7.00016 12.0004C6.01125 12.0004 5.04455 11.7072 4.22231 11.1578C3.40006 10.6083 2.7592 9.82745 2.38076 8.91382C2.00232 8.00019 1.90331 6.99486 2.09623 6.02495C2.28916 5.05505 2.76536 4.16413 3.46463 3.46487C4.16389 2.76561 5.0548 2.2894 6.02471 2.09648C6.99461 1.90355 7.99995 2.00257 8.91358 2.38101C9.82721 2.75944 10.6081 3.40031 11.1575 4.22255C11.7069 5.0448 12.0002 6.0115 12.0002 7.0004C11.9989 8.32611 11.4717 9.59716 10.5343 10.5346C9.59692 11.472 8.32586 11.9992 7.00016 12.0004Z" fill="#4B4F52"/>
</g>
<defs>
<clipPath id="clip0_443_733">
<rect width="16" height="16" fill="white"/>
</clipPath>
</defs>
</svg>
