<svg width="16" height="16" viewBox="0 0 16 16" fill="none" xmlns="http://www.w3.org/2000/svg">
<g clip-path="url(#clip0_443_736)">
<path d="M15.7713 11.4425L13.3534 9.02455V10.9839C11.7731 10.8799 10.2962 10.1621 9.23802 8.98389C9.10468 9.13655 8.97135 9.28789 8.83268 9.45055C8.54002 9.78922 8.23268 10.1399 7.91602 10.4899C9.33732 11.994 11.2862 12.8889 13.3534 12.9865V14.8992L15.7713 12.4812C15.8397 12.4131 15.8939 12.3321 15.9309 12.243C15.9679 12.1539 15.9869 12.0584 15.9869 11.9619C15.9869 11.8654 15.9679 11.7698 15.9309 11.6807C15.8939 11.5916 15.8397 11.5107 15.7713 11.4425Z" fill="#4B4F52"/>
<path d="M13.3414 5.00982V6.94316L15.7694 4.51516C15.9076 4.37688 15.9853 4.18936 15.9853 3.99382C15.9853 3.79829 15.9076 3.61076 15.7694 3.47249L13.3414 1.04382V3.00716C10.324 3.14716 8.50602 4.78982 6.99269 6.48049C5.37736 4.69316 3.41336 2.99116 -0.0139771 2.99116V4.99449C2.71202 4.99449 4.17936 6.32382 5.66602 8.00049C4.17936 9.67716 2.71202 11.0052 -0.0139771 11.0052V13.0085C4.01736 13.0085 6.02669 10.6532 7.82202 8.57449C9.40002 6.75049 10.774 5.16516 13.3414 5.00982Z" fill="#4B4F52"/>
</g>
<defs>
<clipPath id="clip0_443_736">
<rect width="16" height="16" fill="white"/>
</clipPath>
</defs>
</svg>
