<svg width="16" height="16" viewBox="0 0 16 16" fill="none" xmlns="http://www.w3.org/2000/svg">
<g clip-path="url(#clip0_242_36)">
<path d="M16 9V7H13.236C13.1005 6.28515 12.8191 5.6059 12.4093 5.00467L14.364 3.05L12.95 1.636L10.9953 3.59067C10.3942 3.18081 9.71489 2.89938 9 2.764V0H7V2.764C6.28511 2.89938 5.60584 3.18081 5.00467 3.59067L3.05 1.636L1.636 3.05L3.59067 5.00467C3.18092 5.6059 2.89951 6.28515 2.764 7H0V9H2.764C2.89951 9.71485 3.18092 10.3941 3.59067 10.9953L1.636 12.95L3.05 14.364L5.00467 12.4093C5.60584 12.8192 6.28511 13.1006 7 13.236V16H9V13.236C9.71489 13.1006 10.3942 12.8192 10.9953 12.4093L12.95 14.364L14.364 12.95L12.4093 10.9953C12.8191 10.3941 13.1005 9.71485 13.236 9H16ZM8 11.3333C3.59467 11.1933 3.596 4.806 8 4.66667C12.4053 4.80667 12.404 11.194 8 11.3333Z" fill="#374957"/>
</g>
<defs>
<clipPath id="clip0_242_36">
<rect width="16" height="16" fill="white"/>
</clipPath>
</defs>
</svg>
