<svg width="32" height="16" viewBox="0 0 32 16" fill="none" xmlns="http://www.w3.org/2000/svg">
<g clip-path="url(#clip0_443_708)">
<path d="M10.6666 16.016L5.33329 12.816V9.692L0.666626 4.02533V2.33333C0.666626 1.7145 0.912459 1.121 1.35004 0.683418C1.78763 0.245833 2.38112 0 2.99996 0L13 0C13.6188 0 14.2123 0.245833 14.6499 0.683418C15.0875 1.121 15.3333 1.7145 15.3333 2.33333V4.02533L10.6666 9.692V16.016ZM7.33329 11.6827L8.66663 12.4827V8.97467L13.3333 3.308V2.33333C13.3333 2.24493 13.2982 2.16014 13.2357 2.09763C13.1731 2.03512 13.0884 2 13 2H2.99996C2.91155 2 2.82677 2.03512 2.76426 2.09763C2.70174 2.16014 2.66663 2.24493 2.66663 2.33333V3.308L7.33329 8.97467V11.6827Z" fill="#4B4F52"/>
</g>
<path d="M24.0001 10.6666C23.5581 10.6669 23.1341 10.4916 22.8214 10.1793L19.2927 6.64996L20.7074 5.23596L24.0001 8.52863L27.2927 5.23596L28.7074 6.64996L25.1787 10.1786C25.0239 10.3334 24.8402 10.4561 24.6379 10.5399C24.4357 10.6236 24.2189 10.6667 24.0001 10.6666V10.6666Z" fill="#4B4F52"/>
<defs>
<clipPath id="clip0_443_708">
<rect width="16" height="16" fill="white"/>
</clipPath>
</defs>
</svg>
