<svg width="16" height="16" viewBox="0 0 16 16" fill="none" xmlns="http://www.w3.org/2000/svg">
<g clip-path="url(#clip0_443_735)">
<path d="M16 16H0V2.33333C0 1.71449 0.245833 1.121 0.683417 0.683417C1.121 0.245833 1.71449 0 2.33333 0L13.6667 0C14.2855 0 14.879 0.245833 15.3166 0.683417C15.7542 1.121 16 1.71449 16 2.33333V16ZM2 14H14V2.33333C14 2.24493 13.9649 2.16014 13.9024 2.09763C13.8399 2.03512 13.7551 2 13.6667 2H2.33333C2.24493 2 2.16014 2.03512 2.09763 2.09763C2.03512 2.16014 2 2.24493 2 2.33333V14ZM7 8C7 8.19778 7.05865 8.39112 7.16853 8.55557C7.27841 8.72002 7.43459 8.84819 7.61732 8.92388C7.80004 8.99957 8.00111 9.01937 8.19509 8.98079C8.38907 8.9422 8.56725 8.84696 8.70711 8.70711C8.84696 8.56725 8.9422 8.38907 8.98079 8.19509C9.01937 8.00111 8.99957 7.80004 8.92388 7.61732C8.84819 7.43459 8.72002 7.27841 8.55557 7.16853C8.39112 7.05865 8.19778 7 8 7C7.73478 7 7.48043 7.10536 7.29289 7.29289C7.10536 7.48043 7 7.73478 7 8V8ZM4 5C4 5.19778 4.05865 5.39112 4.16853 5.55557C4.27841 5.72002 4.43459 5.84819 4.61732 5.92388C4.80004 5.99957 5.00111 6.01937 5.19509 5.98079C5.38907 5.9422 5.56725 5.84696 5.70711 5.70711C5.84696 5.56725 5.9422 5.38907 5.98079 5.19509C6.01937 5.00111 5.99957 4.80004 5.92388 4.61732C5.84819 4.43459 5.72002 4.27841 5.55557 4.16853C5.39112 4.05865 5.19778 4 5 4C4.73478 4 4.48043 4.10536 4.29289 4.29289C4.10536 4.48043 4 4.73478 4 5ZM10 5C10 5.19778 10.0586 5.39112 10.1685 5.55557C10.2784 5.72002 10.4346 5.84819 10.6173 5.92388C10.8 5.99957 11.0011 6.01937 11.1951 5.98079C11.3891 5.9422 11.5673 5.84696 11.7071 5.70711C11.847 5.56725 11.9422 5.38907 11.9808 5.19509C12.0194 5.00111 11.9996 4.80004 11.9239 4.61732C11.8482 4.43459 11.72 4.27841 11.5556 4.16853C11.3911 4.05865 11.1978 4 11 4C10.7348 4 10.4804 4.10536 10.2929 4.29289C10.1054 4.48043 10 4.73478 10 5V5ZM4 11C4 11.1978 4.05865 11.3911 4.16853 11.5556C4.27841 11.72 4.43459 11.8482 4.61732 11.9239C4.80004 11.9996 5.00111 12.0194 5.19509 11.9808C5.38907 11.9422 5.56725 11.847 5.70711 11.7071C5.84696 11.5673 5.9422 11.3891 5.98079 11.1951C6.01937 11.0011 5.99957 10.8 5.92388 10.6173C5.84819 10.4346 5.72002 10.2784 5.55557 10.1685C5.39112 10.0586 5.19778 10 5 10C4.73478 10 4.48043 10.1054 4.29289 10.2929C4.10536 10.4804 4 10.7348 4 11ZM10 11C10 11.1978 10.0586 11.3911 10.1685 11.5556C10.2784 11.72 10.4346 11.8482 10.6173 11.9239C10.8 11.9996 11.0011 12.0194 11.1951 11.9808C11.3891 11.9422 11.5673 11.847 11.7071 11.7071C11.847 11.5673 11.9422 11.3891 11.9808 11.1951C12.0194 11.0011 11.9996 10.8 11.9239 10.6173C11.8482 10.4346 11.72 10.2784 11.5556 10.1685C11.3911 10.0586 11.1978 10 11 10C10.7348 10 10.4804 10.1054 10.2929 10.2929C10.1054 10.4804 10 10.7348 10 11V11Z" fill="#4B4F52"/>
</g>
<defs>
<clipPath id="clip0_443_735">
<rect width="16" height="16" fill="white"/>
</clipPath>
</defs>
</svg>
