<svg width="16" height="16" viewBox="0 0 16 16" fill="none" xmlns="http://www.w3.org/2000/svg">
<g clip-path="url(#clip0_443_743)">
<path d="M9.33329 16.0002C7.21226 15.9979 5.17876 15.1543 3.67897 13.6545C2.17917 12.1547 1.33558 10.1212 1.33329 8.00017C1.23129 2.02951 8.02062 -1.98983 13.194 1.00617L14.2293 1.58084L13.2006 2.16751C8.73396 4.62617 9.06062 11.4142 13.734 13.4382L14.8146 13.9255L13.8366 14.5962C12.5122 15.5091 10.9419 15.9987 9.33329 16.0002V16.0002ZM9.33329 1.33351C7.56577 1.33545 5.87121 2.03845 4.62139 3.28827C3.37157 4.53809 2.66856 6.23266 2.66662 8.00017C2.56329 12.7448 7.84196 16.1335 12.1033 14.0548C11.1056 13.3853 10.2786 12.4915 9.68843 11.445C9.09823 10.3984 8.76126 9.22826 8.7045 8.02812C8.64774 6.82798 8.87275 5.63122 9.36154 4.53365C9.85032 3.43609 10.5893 2.46821 11.5193 1.70751C10.8174 1.45847 10.078 1.33196 9.33329 1.33351V1.33351Z" fill="#4B4F52"/>
</g>
<defs>
<clipPath id="clip0_443_743">
<rect width="16" height="16" fill="white"/>
</clipPath>
</defs>
</svg>
