<svg width="16" height="16" viewBox="0 0 16 16" fill="none" xmlns="http://www.w3.org/2000/svg">
<g clip-path="url(#clip0_472_1016)">
<path d="M7.99985 5.0918C7.42457 5.0918 6.86221 5.26239 6.38389 5.582C5.90556 5.9016 5.53275 6.35588 5.3126 6.88736C5.09245 7.41885 5.03485 8.00369 5.14708 8.56792C5.25931 9.13214 5.53633 9.65042 5.94312 10.0572C6.3499 10.464 6.86818 10.741 7.4324 10.8532C7.99663 10.9655 8.58146 10.9079 9.11295 10.6877C9.64444 10.4676 10.0987 10.0948 10.4183 9.61643C10.7379 9.1381 10.9085 8.57574 10.9085 8.00046C10.9076 7.22931 10.6009 6.48999 10.0556 5.9447C9.51033 5.39941 8.77101 5.09268 7.99985 5.0918V5.0918ZM7.99985 8.90913C7.82014 8.90913 7.64446 8.85584 7.49503 8.75599C7.3456 8.65615 7.22913 8.51423 7.16036 8.3482C7.09158 8.18216 7.07359 7.99946 7.10865 7.82319C7.14371 7.64693 7.23025 7.48502 7.35733 7.35794C7.48441 7.23086 7.64632 7.14432 7.82258 7.10926C7.99885 7.0742 8.18155 7.09219 8.34759 7.16097C8.51362 7.22974 8.65554 7.34621 8.75538 7.49564C8.85523 7.64507 8.90852 7.82075 8.90852 8.00046C8.90834 8.2414 8.81255 8.47242 8.64218 8.64279C8.47181 8.81316 8.24079 8.90895 7.99985 8.90913V8.90913Z" fill="#1A2933"/>
<path d="M14.6665 8C14.6644 7.16987 14.5061 6.34755 14.1998 5.576L15.4298 4.86667L14.4298 3.13333L13.2038 3.844C12.1576 2.53501 10.6565 1.66832 8.99982 1.41667V0H6.99982V1.41667C5.34488 1.66839 3.8454 2.53405 2.79982 3.84133L1.57182 3.13333L0.571824 4.86667L1.79982 5.57267C1.18159 7.13069 1.18159 8.86598 1.79982 10.424L0.569824 11.1333L1.56982 12.8667L2.79582 12.1593C3.84261 13.4671 5.3436 14.3325 6.99982 14.5833V16H8.99982V14.5833C10.6548 14.3316 12.1543 13.466 13.1998 12.1587L14.4265 12.8673L15.4265 11.134L14.1998 10.4273C14.5061 9.65462 14.6644 8.83121 14.6665 8V8ZM7.99982 12.6667C7.07685 12.6667 6.17459 12.393 5.40716 11.8802C4.63973 11.3674 4.0416 10.6386 3.68839 9.78586C3.33518 8.93313 3.24276 7.99482 3.42283 7.08958C3.60289 6.18433 4.04735 5.35281 4.69999 4.70017C5.35264 4.04752 6.18416 3.60307 7.0894 3.423C7.99465 3.24294 8.93296 3.33535 9.78568 3.68856C10.6384 4.04177 11.3672 4.63991 11.88 5.40734C12.3928 6.17477 12.6665 7.07702 12.6665 8C12.6649 9.23719 12.1727 10.4233 11.2979 11.2981C10.4231 12.1729 9.23701 12.6651 7.99982 12.6667V12.6667Z" fill="#1A2933"/>
</g>
<defs>
<clipPath id="clip0_472_1016">
<rect width="16" height="16" fill="white"/>
</clipPath>
</defs>
</svg>
