<svg width="16" height="16" viewBox="0 0 16 16" fill="none" xmlns="http://www.w3.org/2000/svg">
<g clip-path="url(#clip0_443_742)">
<path d="M16 8.66667V7.33333H12.6187C12.5655 6.9626 12.4675 6.59972 12.3267 6.25267L15.2547 4.548L14.584 3.396L11.6547 5.10133C11.4307 4.8198 11.1753 4.56481 10.8933 4.34133L12.5933 1.418L11.4413 0.747333L9.74133 3.67067C9.39612 3.53115 9.03527 3.43399 8.66667 3.38133V0H7.33333V3.38133C6.96762 3.43332 6.60949 3.52912 6.26667 3.66667L4.56933 0.747333L3.41733 1.418L5.114 4.33333C4.83056 4.55773 4.57397 4.81409 4.34933 5.09733L1.42667 3.396L0.756 4.548L3.67533 6.24733C3.53327 6.59594 3.43453 6.96067 3.38133 7.33333H0V8.66667H3.38133C3.43457 9.0376 3.53262 9.40069 3.67333 9.748L0.760667 11.4433L1.43133 12.596L4.346 10.8987C4.56761 11.1778 4.82036 11.4308 5.09933 11.6527L3.4 14.5767L4.55267 15.2473L6.25133 12.326C6.59875 12.4672 6.9621 12.5655 7.33333 12.6187V16H8.66667V12.6187C9.04146 12.565 9.40822 12.4653 9.75867 12.322L11.46 15.2473L12.612 14.5767L10.908 11.6467C11.1856 11.4251 11.4372 11.1728 11.658 10.8947L14.58 12.596L15.2467 11.4433L12.3253 9.74267C12.4662 9.39717 12.5647 9.03587 12.6187 8.66667H16ZM11.3333 8C11.1933 12.4053 4.806 12.404 4.66667 8C4.80667 3.59467 11.194 3.596 11.3333 8Z" fill="#4B4F52"/>
</g>
<defs>
<clipPath id="clip0_443_742">
<rect width="16" height="16" fill="white"/>
</clipPath>
</defs>
</svg>
