<svg width="100" height="100" viewBox="0 0 100 100" fill="none" xmlns="http://www.w3.org/2000/svg">
<rect width="100" height="100" rx="30" fill="#FFE9EF"/>
<g clip-path="url(#clip0_241_3)">
<path d="M80.712 23.5653C79.7919 21.8816 78.4356 20.4764 76.7855 19.4972C75.1354 18.518 73.2522 18.0009 71.3334 18H28.6667C26.7479 18.0009 24.8647 18.518 23.2146 19.4972C21.5644 20.4764 20.2082 21.8816 19.288 23.5653C18.3603 25.2229 17.9027 27.1024 17.9648 29.001C18.0268 30.8996 18.606 32.7452 19.64 34.3387C22.7656 38.8713 26.8853 42.6301 31.6847 45.3282C36.4842 48.0262 41.8365 49.5922 47.3334 49.9067V76.6667H36.6667C35.9595 76.6667 35.2812 76.9476 34.7811 77.4477C34.281 77.9478 34 78.6261 34 79.3333C34 80.0406 34.281 80.7189 34.7811 81.219C35.2812 81.7191 35.9595 82 36.6667 82H63.3334C64.0406 82 64.7189 81.7191 65.219 81.219C65.7191 80.7189 66 80.0406 66 79.3333C66 78.6261 65.7191 77.9478 65.219 77.4477C64.7189 76.9476 64.0406 76.6667 63.3334 76.6667H52.6667V49.9067C58.1635 49.5922 63.5159 48.0262 68.3154 45.3282C73.1148 42.6301 77.2345 38.8713 80.36 34.3387C81.394 32.7452 81.9733 30.8996 82.0353 29.001C82.0973 27.1024 81.6398 25.2229 80.712 23.5653V23.5653ZM28.6667 23.3333H71.3334C72.7479 23.3333 74.1044 23.8952 75.1046 24.8954C76.1048 25.8956 76.6667 27.2522 76.6667 28.6667H23.3334C23.3334 27.2522 23.8953 25.8956 24.8955 24.8954C25.8957 23.8952 27.2522 23.3333 28.6667 23.3333V23.3333ZM50 44.6667C45.4778 44.6825 41.0035 43.7401 36.8719 41.9015C32.7402 40.063 29.0449 37.37 26.0294 34H73.9707C70.9558 37.3708 67.2606 40.0644 63.1288 41.903C58.997 43.7416 54.5224 44.6835 50 44.6667V44.6667Z" fill="#FF003D"/>
</g>
<defs>
<clipPath id="clip0_241_3">
<rect width="64" height="64" fill="white" transform="translate(18 18)"/>
</clipPath>
</defs>
</svg>
